<svg
  version="1.1"
  xmlns="http://www.w3.org/2000/svg"
  xmlns:xlink="http://www.w3.org/1999/xlink"
  x="0px"
  y="0px"
  viewBox="0 0 1000 1000"
  enable-background="new 0 0 1000 1000"
  xml:space="preserve"
  fill="#727272"
>
<g><path d="M811.8,477.7v44.5c0,6.5-2.1,11.8-6.3,16s-9.5,6.3-16,6.3h-245v245c0,6.5-2.1,11.8-6.3,16c-4.2,4.2-9.5,6.3-16,6.3h-44.5c-6.5,0-11.8-2.1-16-6.3c-4.2-4.2-6.3-9.5-6.3-16v-245h-245c-6.5,0-11.8-2.1-16-6.3s-6.3-9.5-6.3-16v-44.5c0-6.5,2.1-11.8,6.3-16s9.5-6.3,16-6.3h245v-245c0-6.5,2.1-11.8,6.3-16c4.2-4.2,9.5-6.3,16-6.3h44.5c6.5,0,11.8,2.1,16,6.3c4.2,4.2,6.3,9.5,6.3,16v245h245c6.5,0,11.8,2.1,16,6.3S811.8,471.3,811.8,477.7L811.8,477.7z M900.9,789.5V210.5c0-30.6-10.9-56.8-32.7-78.7c-21.8-21.8-48-32.7-78.7-32.7H210.5c-30.6,0-56.8,10.9-78.7,32.7c-21.8,21.8-32.7,48-32.7,78.7v579.1c0,30.6,10.9,56.8,32.7,78.7c21.8,21.8,48,32.7,78.7,32.7h579.1c30.6,0,56.8-10.9,78.7-32.7C890,846.4,900.9,820.2,900.9,789.5z M990,210.5v579.1c0,55.2-19.6,102.4-58.8,141.7C892,970.4,844.8,990,789.5,990H210.5c-55.2,0-102.4-19.6-141.7-58.8C29.6,892,10,844.8,10,789.5V210.5C10,155.2,29.6,108,68.8,68.8C108,29.6,155.2,10,210.5,10h579.1c55.2,0,102.4,19.6,141.7,58.8C970.4,108,990,155.2,990,210.5L990,210.5z"/></g>
</svg>
