<svg
  version="1.1"
  xmlns="http://www.w3.org/2000/svg"
  xmlns:xlink="http://www.w3.org/1999/xlink"
  x="0px"
  y="0px"
  viewBox="0 0 1000 1000"
  enable-background="new 0 0 1000 1000"
  xml:space="preserve"
  fill="#ffffff"
>
<g><path d="M682.4,532l276.4,276.4c45.7,45.7,41.1,122.6-13.7,162.1c-43,31-103.3,21.9-140.8-15.6L532,682.4c-17.7-17.6-46.3-17.6-63.9,0L191.6,958.9C146,1004.5,69,1000,29.6,945.1c-31-43-21.9-103.3,15.7-140.8L317.6,532c17.7-17.7,17.7-46.3,0-63.9L41.2,191.6C-4.5,146,0,69,54.8,29.6c43-31,103.3-21.9,140.9,15.7l272.3,272.3c17.6,17.7,46.3,17.7,63.9,0L808.4,41.2C854-4.5,931,0,970.4,54.8c31,43,21.9,103.3-15.6,140.9L682.4,468.1C664.8,485.7,664.8,514.3,682.4,532"/></g>
</svg>
